<?xml version='1.0' encoding='utf-8'?>
<svg xmlns="http://www.w3.org/2000/svg" enable-background="new 0 0 39.75 46.6" version="1.1" viewBox="0 0 39.75 46.6">
<g clip-rule="evenodd" fill-rule="evenodd">
	<path d="m36.962 9.794l-34.004-1.236 0.072-1.381c-0.048-0.241-0.023-0.532 0.073-0.871 0.195-0.63 0.582-1.114 1.164-1.453 0.628-0.339 1.429-0.46 2.396-0.363 0.486 0.048 0.898 0.12 1.237 0.218 0-0.146 0.048-0.315 0.145-0.51 0.194-0.387 0.507-0.654 0.945-0.799 0.727-0.243 1.646-0.363 2.76-0.363 0.048-0.243 0.194-0.508 0.436-0.799 0.485-0.534 1.236-0.873 2.254-1.018 1.598-0.243 3.002-0.291 4.213-0.145 0.146-0.195 0.364-0.388 0.655-0.582 0.531-0.387 1.09-0.558 1.671-0.508 0.872 0.096 1.913 0.871 3.124 2.324l0.797-0.289c0.678-0.145 1.309-0.169 1.89-0.072 0.872 0.145 1.525 0.823 1.962 2.035h2.906c0.774 0.096 1.38 0.702 1.816 1.816h0.653c0.484 0.048 0.994 0.217 1.526 0.508 0.776 0.484 1.211 1.647 1.309 3.488z" fill="#9C9797"/>
	<path d="m22.213 30.138v-14.242h0.508c-0.049 0.873-0.024 3.368 0.073 7.484 0.097 3.1-0.098 5.352-0.581 6.758z" fill="#E79D9C"/>
	<path d="m25.482 18.075c-0.049 0.291-0.024 1.309 0.072 3.053 0.048 1.307-0.169 2.107-0.654 2.396 0.05-0.289 0.05-1.307 0-3.051-0.096-1.308 0.098-2.107 0.582-2.398z" fill="#E79D9C"/>
	<path d="m24.465 35.005c-0.097 2.18-0.121 3.464-0.072 3.852-0.243 0.241-0.532 0.702-0.872 1.379-0.291 0.438-0.727 0.34-1.308-0.289v-7.629c0.242 0 0.581-0.024 1.017-0.074 0.34-0.048 0.532-0.217 0.581-0.508 0.533 0.532 0.75 1.621 0.654 3.269z" fill="#D52D37"/>
	<path d="m24.9 38.856c0.63-0.34 0.993-1.066 1.09-2.18 0.339 0 0.558 0.266 0.654 0.799 0.048 0.532 0.194 0.823 0.436 0.871v1.6l-1.598 1.67c-0.484 0.049-0.703-0.291-0.654-1.018 0.096-1.065 0.122-1.645 0.072-1.742z" fill="#DCD5D2"/>
	<path d="m9.789 5.435c-0.34 0.096-0.946 0.12-1.817 0.072-0.291-0.775 0.024-1.309 0.943-1.6 0.969-0.289 1.575-0.121 1.816 0.51-0.047 0.532-0.362 0.871-0.942 1.018z" fill="#9C9797"/>
	<path d="m31.803 5.435c-0.049 0.727 0.023 1.307 0.219 1.742 0 0.195-0.121 0.438-0.363 0.727-0.195 0.243-0.243 0.534-0.146 0.873-0.437-0.194-0.75-0.315-0.944-0.363-0.291-0.146-0.532-0.024-0.727 0.363-0.243-0.048-0.509-0.243-0.8-0.582-0.29-0.291-0.581-0.459-0.872-0.508 0.098-0.339 0.291-0.485 0.582-0.436 0.339 0 0.531 0.145 0.581 0.436 0.193-0.048 0.363-0.243 0.509-0.582 0.145-0.339 0.339-0.508 0.581-0.508-0.533-0.436-0.824-0.727-0.872-0.873-0.146-0.289 0.146-0.556 0.872-0.799 0.34 0.097 0.509-0.072 0.509-0.508 0.63 0.291 0.921 0.63 0.871 1.018z" fill="#F2DB8B"/>
	<path d="m17.781 2.745c0.532 0.534 0.654 1.284 0.363 2.252-0.146 0.485-0.436 1.212-0.873 2.18-0.677-0.096-0.943-0.387-0.799-0.871 0.146-0.484 0.048-0.75-0.291-0.799v-1.09c-1.016-0.097-1.574 0.072-1.67 0.508-0.921 0.727-2.107 1.187-3.561 1.381-1.501 0.096-2.494 0.194-2.978 0.291h-0.582v-1.09h0.582c0.871 0.048 1.477 0.024 1.816-0.072 0.58-0.146 0.896-0.485 0.943-1.018 0.291-0.678 1.285-1.042 2.98-1.09 1.937-0.048 3.123-0.243 3.559-0.582h0.511z" fill="#F2DB8B"/>
	<path d="m26.572 4.417c-0.146 0.532 0.048 0.993 0.581 1.381 0.484 0.339 0.653 0.799 0.509 1.379-0.631 0.05-1.042-0.168-1.235-0.652-0.194-0.679-0.339-1.212-0.437-1.6-0.968 0.436-1.622 0.703-1.961 0.799-0.532 0.146-1.333 0.074-2.398-0.217 0.242 0.436 0.678 0.993 1.309 1.67 0.339 0.582 0.096 1.114-0.727 1.6 0.145 0.484 0.459 0.484 0.944 0 0.581-0.678 1.162-0.849 1.743-0.51 0.242 0.727 0.073 1.26-0.508 1.6-0.484 0.291-0.484 0.654 0 1.09 0.822 0.048 1.356-0.315 1.598-1.09 0.242 0 0.485 0.217 0.727 0.654 0.194 0.387 0.509 0.532 0.945 0.436-0.049 0.291-0.146 0.58-0.291 0.871-0.097 0.243 0 0.51 0.291 0.799 0.29-0.048 0.508-0.289 0.653-0.727 0.193-0.532 0.34-0.847 0.437-0.943 0.29 0 0.605 0.241 0.944 0.727 0.29 0.387 0.703 0.508 1.235 0.363 0 0.145-0.097 0.315-0.291 0.508-0.146 0.194-0.218 0.388-0.218 0.582-1.212 0.145-2.107 0.315-2.688 0.508-0.823 0.339-1.574 0.897-2.252 1.672-0.049-0.388-0.437-0.436-1.163-0.146-0.822 0.438-1.356 0.679-1.599 0.727h-1.09c-0.049-0.58 0.146-0.943 0.582-1.09-0.484-0.387-0.8-0.702-0.945-0.943-0.29-0.485-0.34-1.09-0.145-1.816-0.631-0.194-1.114 0-1.453 0.58-0.185 0.254-0.221 0.423-0.109 0.51-0.586 0.141-1.059 0.552-1.417 1.234-0.582 1.066-0.315 1.768 0.799 2.107-0.097 0.194-0.363 0.387-0.799 0.582-0.291 0.241-0.412 0.58-0.363 1.016-0.194 0.05-0.436 0.243-0.727 0.582-0.291 0.291-0.582 0.46-0.873 0.508-0.532-0.484-0.919-0.847-1.162-1.09-0.387-0.436-0.556-0.968-0.508-1.598-0.339 0.339-0.703 0.508-1.09 0.508-0.485 0.146-0.654 0.51-0.51 1.09-0.774-0.241-1.138-0.774-1.09-1.598v-0.582c-0.387-0.387-0.58-0.75-0.58-1.09 0.484-0.145 0.799 0 0.943 0.438 0.05 0.048 0.098 0.459 0.146 1.234 0.58-0.63 1.381-0.896 2.396-0.799 0.825 0.096 1.309-0.194 1.453-0.873 0.582 0.146 0.727 0.438 0.438 0.873-0.438 0.58-0.582 1.018-0.438 1.307 0.921-0.145 1.381-0.508 1.381-1.09-0.193-0.871-0.291-1.598-0.291-2.18-0.339 0.291-0.604 0.388-0.799 0.291-0.241-0.096-0.339-0.387-0.291-0.871h1.09c0.05-0.582-0.121-1.042-0.508-1.381-0.048-0.048-0.436-0.315-1.162-0.799 0.048-0.291 0.241-0.558 0.58-0.799 0.291-0.291 0.461-0.558 0.51-0.801 0.678 0.388 1.72 0.51 3.124 0.363 0.759-0.091 1.353-0.03 1.78 0.182-0.458-0.558-0.615-1.247-0.472-2.07 0.242-1.259 0.048-2.228-0.582-2.906-0.484 0.146-0.653 0.51-0.508 1.09-0.631-0.241-0.922-0.58-0.872-1.018 0.049-0.677-0.023-1.234-0.218-1.67 0.63 0.775 1.285 1.065 1.961 0.871 0.437-0.145 1.235-0.436 2.398-0.871 0 0.25-0.109 0.517-0.327 0.799 0.235-0.153 0.538-0.129 0.908 0.072 0.532 0.291 0.872 0.17 1.017-0.363 0.582 0 0.945 0.024 1.09 0.072 0.342 0.048 0.536 0.217 0.585 0.508z" fill="#F2DB8B"/>
	<path d="m24.9 3.835c-0.145 0.534-0.484 0.654-1.017 0.363-0.37-0.201-0.673-0.226-0.908-0.072 0.218-0.282 0.327-0.549 0.327-0.799-1.163 0.436-1.962 0.727-2.398 0.871-0.677 0.194-1.331-0.096-1.961-0.871 0.195 0.436 0.267 0.993 0.218 1.67-0.05 0.438 0.241 0.776 0.872 1.018-0.146-0.58 0.023-0.943 0.508-1.09 0.63 0.678 0.824 1.647 0.582 2.906-0.144 0.823 0.014 1.513 0.472 2.07-0.428-0.211-1.021-0.272-1.78-0.182-1.404 0.146-2.445 0.024-3.124-0.363-0.048 0.243-0.219 0.51-0.51 0.801-0.339 0.241-0.532 0.508-0.58 0.799 0.727 0.484 1.114 0.75 1.162 0.799 0.387 0.339 0.558 0.799 0.508 1.381h-1.09c0-0.194-0.121-0.339-0.363-0.436-0.339 0-0.58-0.024-0.727-0.074v-2.18h0.51c-0.048-0.289-0.412-0.58-1.09-0.871-0.534-0.194-0.703-0.63-0.51-1.309-1.937 1.26-3.22 2.519-3.85 3.779-0.534-0.388-0.969-0.678-1.309-0.873-0.532-0.339-1.186-0.411-1.961-0.217 0.339 0.436 0.871 0.799 1.598 1.09 0 0.241-0.121 0.387-0.363 0.436-0.339 0.048-0.58 0.097-0.727 0.145 0-0.193-0.121-0.339-0.363-0.436-0.339-0.048-0.58-0.096-0.727-0.145 0.339-1.162 0.339-1.987 0-2.471-0.63-0.63-1.162-1.259-1.598-1.889 0-0.534 0.387-0.823 1.162-0.873 0.873-0.095 1.383-0.53 1.527-1.305v1.09c-0.339 0.532-0.508 1.09-0.508 1.67 0.678 1.453 1.259 1.792 1.744 1.018 0.436-0.775 0.217-1.67-0.654-2.688 0.484-0.097 1.477-0.195 2.979-0.291 1.453-0.194 2.64-0.654 3.561-1.381 0.968 0.291 1.162 0.51 0.58 0.654-0.919 0.194-1.477 0.339-1.67 0.436 0.096 0.63 0.63 0.849 1.598 0.654 0.921-0.243 1.309-0.63 1.162-1.162 0.339 0.048 0.438 0.315 0.291 0.799-0.145 0.484 0.122 0.775 0.799 0.871 0.438-0.968 0.727-1.694 0.873-2.18 0.291-0.968 0.169-1.718-0.363-2.252h-0.51v-1.09c2.519 0.436 4.53 0.436 6.032 0 0.339 0.048 0.558 0.46 0.653 1.236 0.096 0.727 0.411 1.041 0.943 0.944z" fill="#F9EEBC"/>
	<path d="m30.423 4.925c-0.727 0.243-1.018 0.51-0.872 0.799 0.048 0.146 0.339 0.438 0.872 0.873-0.242 0-0.437 0.169-0.581 0.508-0.146 0.339-0.315 0.534-0.509 0.582-0.05-0.291-0.242-0.436-0.581-0.436-0.291-0.05-0.484 0.096-0.582 0.436 0.291 0.048 0.582 0.217 0.872 0.508 0.291 0.339 0.557 0.534 0.8 0.582 0.145 0.436 0.508 0.63 1.09 0.58-0.34 0.727-0.994 0.994-1.962 0.801-0.776-0.195-1.212 0.072-1.308 0.799-0.437 0.096-0.751-0.048-0.945-0.436-0.241-0.438-0.484-0.654-0.727-0.654-0.241 0.775-0.775 1.138-1.598 1.09-0.484-0.436-0.484-0.799 0-1.09 0.581-0.339 0.75-0.873 0.508-1.6-0.581-0.339-1.162-0.168-1.743 0.51-0.485 0.484-0.8 0.484-0.944 0 0.822-0.485 1.065-1.018 0.727-1.6-0.631-0.677-1.066-1.234-1.309-1.67 1.065 0.291 1.866 0.363 2.398 0.217 0.339-0.096 0.993-0.363 1.961-0.799 0.098 0.388 0.242 0.921 0.437 1.6 0.193 0.484 0.604 0.702 1.235 0.652 0.145-0.58-0.024-1.04-0.509-1.379-0.533-0.388-0.727-0.849-0.581-1.381 0.436 0.339 1.09 0.387 1.961 0.145 0.824-0.242 1.453-0.121 1.89 0.363z" fill="#F9EEBC"/>
	<path d="m35.872 8.776v1.67c-0.291 0-0.605 0.219-0.944 0.654-0.291 0.436-0.703 0.582-1.235 0.436 0-0.919-0.314-1.114-0.944-0.58-0.922 0.775-1.526 1.138-1.816 1.09-0.532 0.145-0.945 0.024-1.235-0.363-0.339-0.485-0.654-0.727-0.944-0.727-0.097 0.096-0.243 0.412-0.437 0.943-0.146 0.438-0.363 0.679-0.653 0.727-0.291-0.289-0.388-0.556-0.291-0.799 0.146-0.291 0.242-0.58 0.291-0.871 0.096-0.727 0.531-0.994 1.308-0.799 0.968 0.193 1.622-0.074 1.962-0.801-0.582 0.05-0.945-0.145-1.09-0.58 0.194-0.388 0.436-0.51 0.727-0.363 0.194 0.048 0.508 0.169 0.944 0.363-0.098-0.339-0.05-0.63 0.146-0.873 0.242-0.289 0.363-0.532 0.363-0.727 0.29-0.096 0.483 0.074 0.581 0.51-0.339 0.387-0.8 1.042-1.381 1.961-0.533 0.873-0.993 1.501-1.38 1.889 1.404-0.048 2.131-0.774 2.18-2.18 0.581 0.388 1.138 0.558 1.671 0.51 0.049-0.291-0.05-0.654-0.291-1.09-0.194-0.388-0.29-0.751-0.29-1.09 0.774-0.388 1.332-0.436 1.671-0.146 0.238 0.147 0.602 0.558 1.087 1.236z" fill="#DCBA5D"/>
	<path d="m6.3 12.046c-0.775-1.018-1.307-2.107-1.598-3.27-0.096 0.145-0.411 0.291-0.945 0.436-0.435 0.144-0.678 0.363-0.726 0.654-0.532-0.048-0.727-0.485-0.58-1.309 0.145-0.678 0.339-1.138 0.58-1.381 0.534 0.339 1.09 0.51 1.672 0.51 0.435 0.63 0.967 1.259 1.597 1.889 0.34 0.484 0.34 1.309 0 2.471z" fill="#DCBA5D"/>
	<path d="m7.972 6.597c0.871 1.018 1.09 1.913 0.654 2.688-0.485 0.774-1.065 0.435-1.744-1.018 0-0.58 0.169-1.138 0.508-1.67h0.582z" fill="#FEFFFD"/>
	<path d="m1.578 14.589c0.873 2.906 1.357 5.158 1.453 6.756 0.485-0.096 0.678-0.459 0.582-1.09 0.291 0.05 0.459 0.267 0.508 0.654v1.018c-0.63 0.291-0.702 1.018-0.217 2.18 0.484 1.211 0.387 1.938-0.291 2.18-0.097-1.309-0.921-4.578-2.471-9.809-1.21-4.02-1.477-6.951-0.799-8.791 0.049 1.84 0.46 4.14 1.235 6.902z" fill="#9C9797"/>
	<path d="m33.111 7.687c0 0.339 0.096 0.702 0.29 1.09 0.241 0.436 0.34 0.799 0.291 1.09-0.533 0.048-1.09-0.122-1.671-0.51-0.049 1.405-0.775 2.132-2.18 2.18 0.387-0.387 0.847-1.016 1.38-1.889 0.581-0.919 1.042-1.574 1.381-1.961h0.509z" fill="#F2DB8B"/>
	<path d="m12.912 10.446c-1.065 1.164-1.792 2.059-2.18 2.689-0.58-0.388-1.138-0.558-1.67-0.51 0.048-0.484-0.024-0.774-0.219-0.871-0.193-0.144-0.315-0.047-0.363 0.292-0.727-0.291-1.259-0.654-1.598-1.09 0.775-0.194 1.429-0.122 1.961 0.217 0.339 0.195 0.775 0.485 1.309 0.873 0.63-1.26 1.913-2.519 3.85-3.779-0.193 0.679-0.024 1.114 0.51 1.309 0.678 0.291 1.042 0.582 1.09 0.871h-0.51c-0.58 0.727-0.871 1.478-0.871 2.254 0.048 0.871 0.508 1.379 1.381 1.525-0.823 0.823-1.575 0.727-2.252-0.291-0.631-1.018-0.777-2.18-0.438-3.489z" fill="#F2DB8B"/>
	<path d="m3.031 7.177c-0.241 0.242-0.436 0.702-0.58 1.381-0.146 0.823 0.048 1.26 0.58 1.309 0.048-0.291 0.291-0.51 0.727-0.654 0.534-0.145 0.849-0.291 0.945-0.436 0.291 1.162 0.823 2.252 1.598 3.27 0.146 0.048 0.388 0.096 0.727 0.145 0.243 0.097 0.363 0.243 0.363 0.436-1.259 0.921-1.283 3.972-0.072 9.156 1.55 6.78 2.324 10.824 2.324 12.133-0.048 0.484-0.048 1.332 0 2.543-0.096 0.823-0.484 0.896-1.162 0.219-1.065-5.91-1.889-10.343-2.471-13.297-1.016-5.282-2.01-9.592-2.979-12.936-1.114 0.727-1.234 2.375-0.363 4.941 0.921 2.762 1.236 4.383 0.945 4.867 0.096 0.63-0.097 0.994-0.582 1.09-0.096-1.598-0.58-3.85-1.453-6.756-0.775-2.762-1.186-5.062-1.234-6.902 0.193 0 0.315-0.122 0.363-0.363 0.048-0.339 0.096-0.582 0.145-0.727 0.291 0.048 0.751 0.048 1.381 0 0.483 0.049 0.749 0.242 0.798 0.581z" fill="#B5B7B5"/>
	<path d="m4.121 21.927c0.582 2.228 1.865 7.871 3.852 16.93-0.097 0.677-0.363 0.727-0.799 0.145-0.438-0.63-0.534-1.211-0.291-1.744 0-0.145-0.122-0.072-0.363 0.219-0.291 0.291-0.436 0.388-0.436 0.291v-0.801c0.339-0.387 0.265-0.46-0.219-0.217-0.339 0.193-0.363 0.169-0.072-0.072-0.097-1.405-0.436-3.173-1.018-5.305-0.678-2.228-1.066-3.924-1.162-5.086 0.678-0.242 0.775-0.969 0.291-2.18-0.486-1.163-0.413-1.889 0.217-2.18z" fill="#B5B7B5"/>
	<path d="m9.642 36.458c-0.048-1.211-0.048-2.059 0-2.543 0.582 1.309 1.114 3.875 1.6 7.701-0.823 0.243-1.309-0.072-1.453-0.943-0.194-1.114-0.436-1.72-0.727-1.816 0.048-0.291-0.048-0.654-0.291-1.09-0.194-0.388-0.291-0.751-0.291-1.09 0.678 0.677 1.066 0.604 1.162-0.219z" fill="#9C9797"/>
	<path d="m9.062 15.315c-0.097-0.436-0.339-0.897-0.727-1.381-0.534-0.678-0.849-1.114-0.945-1.309 0.146-0.048 0.388-0.096 0.727-0.145 0.243-0.048 0.363-0.194 0.363-0.436 0.048-0.339 0.17-0.436 0.363-0.291 0.194 0.097 0.267 0.387 0.219 0.871-0.388 0.921-0.17 1.429 0.654 1.527 0.968 0.145 1.477 0.363 1.525 0.652 0 0.339 0.193 0.703 0.58 1.09-0.58-0.436-1.016-0.75-1.307-0.943-0.484-0.241-0.968-0.12-1.452 0.365z" fill="#DCD5D2"/>
	<path d="m36.962 10.956c-0.776 2.76-1.695 7.144-2.761 13.15-0.388 3.536-0.922 6.079-1.599 7.629-0.339 0.048-0.581 0.097-0.727 0.145-0.242 0.05-0.363 0.194-0.363 0.438-0.339-0.05-0.533-0.315-0.581-0.801 0.048-0.629 0.048-1.09 0-1.379v-1.672c1.308-6.104 2.034-11.213 2.18-15.33 0.29-0.048 0.459-0.243 0.508-0.582 0.05-0.436 0.073-0.775 0.073-1.018 0.532 0.146 0.944 0 1.235-0.436 0.339-0.436 0.653-0.654 0.944-0.654v-1.67c0.581-0.921 1.235-1.09 1.962-0.51 0.727 0.534 1.162 0.703 1.308 0.51 0.581 0.387 0.751 1.162 0.509 2.324-0.243 0.969-0.606 1.647-1.09 2.035v-2.689c-0.437 0-0.775 0.024-1.018 0.074-0.339 1e-3 -0.531 0.145-0.58 0.436z" fill="#F2F3F1"/>
	<path d="m32.603 31.735c0.677-1.55 1.211-4.093 1.599-7.629 1.356-1.066 2.397-3.125 3.124-6.176 0.727-3.197 0.604-5.521-0.363-6.975 0.049-0.291 0.241-0.436 0.581-0.436 0.242-0.05 0.581-0.074 1.018-0.074v2.689c-0.484 2.083-1.357 6.32-2.616 12.715-1.065 5.327-2.011 9.493-2.833 12.496-0.291-0.097-0.437-0.58-0.437-1.453-0.048-0.823-0.267-1.259-0.653-1.307-0.097-0.534 0.023-1.164 0.363-1.891 0.289-0.627 0.362-1.28 0.217-1.959z" fill="#D52D37"/>
	<path d="m36.962 10.956c0.968 1.453 1.09 3.777 0.363 6.975-0.727 3.051-1.768 5.11-3.124 6.176 1.066-6.007 1.985-10.391 2.761-13.151z" fill="#E76D73"/>
	<path d="m30.132 13.862c0.193-0.339 0.291-0.582 0.291-0.727 0-0.194 0.072-0.388 0.218-0.582 0.194-0.193 0.291-0.363 0.291-0.508 0.29 0.048 0.895-0.315 1.816-1.09 0.63-0.534 0.944-0.339 0.944 0.58 0 0.243-0.023 0.582-0.073 1.018-0.049 0.339-0.218 0.534-0.508 0.582v-1.09c-0.679 0.048-1.235 0.315-1.672 0.799-0.049 0-0.388 0.46-1.017 1.381-0.29-0.096-0.386-0.218-0.29-0.363z" fill="#F9EEBC"/>
	<path d="m25.482 15.315c0.678-0.775 1.429-1.333 2.252-1.672 0.581-0.193 1.477-0.363 2.688-0.508 0 0.145-0.098 0.387-0.291 0.727-0.096 0.145 0 0.267 0.291 0.363-1.065 5.377-1.623 10.123-1.671 14.24 0 0.339-0.146 0.848-0.437 1.525-0.242 0.533-0.29 1.114-0.146 1.744-0.049 0.339-0.169 1.501-0.363 3.488-0.097 1.453-0.34 2.493-0.727 3.123-0.241-0.048-0.388-0.339-0.436-0.871-0.097-0.533-0.315-0.799-0.654-0.799-0.097 1.113-0.46 1.84-1.09 2.18v-15.331c0.485-0.289 0.702-1.09 0.654-2.396-0.097-1.744-0.121-2.762-0.072-3.053v-1.379c-0.049-0.485-0.243-0.751-0.582-0.801-0.046-0.289 0.148-0.483 0.584-0.58z" fill="#F2F3F1"/>
	<path d="m28.752 28.466c0.483 0.242 0.969 0.048 1.453-0.582 0.339-0.483 0.581-0.46 0.727 0.074-0.243 0.048-0.509 0.411-0.8 1.09-0.242 0.532-0.702 0.702-1.38 0.508 0.387 0.388 0.558 0.823 0.508 1.309-0.097 0.532-0.46 0.823-1.09 0.871-0.145-0.63-0.097-1.211 0.146-1.744 0.29-0.679 0.436-1.187 0.436-1.526z" fill="#D52D37"/>
	<path d="m30.423 14.226c0.629-0.921 0.968-1.381 1.017-1.381 0.437-0.484 0.993-0.75 1.672-0.799v1.09c-0.146 4.117-0.872 9.227-2.18 15.33v-0.508c-0.146-0.534-0.388-0.558-0.727-0.074-0.484 0.63-0.97 0.824-1.453 0.582 0.048-4.117 0.605-8.863 1.671-14.24z" fill="#E76D73"/>
	<path d="m11.822 16.478c-0.484 0.339-0.556 1.09-0.217 2.252 0.387 1.405 0.459 2.471 0.217 3.197-0.048 0.921-0.145 1.55-0.289 1.889-0.243 0.582-0.703 0.849-1.381 0.799 0-1.162-0.363-4.261-1.09-9.299 0.484-0.485 0.968-0.606 1.453-0.363 0.291 0.193 0.727 0.508 1.307 0.943v0.582z" fill="#B5B7B5"/>
	<path d="m25.482 18.075c-0.484 0.291-0.679 1.09-0.582 2.398 0.05 1.744 0.05 2.762 0 3.051v15.332h-0.508c-0.049-0.388-0.024-1.672 0.072-3.852 0.096-1.647-0.121-2.737-0.654-3.27-0.049 0.291-0.241 0.46-0.581 0.508-0.436 0.05-0.774 0.074-1.017 0.074v-2.18c0.483-1.405 0.678-3.657 0.581-6.758-0.098-4.117-0.122-6.611-0.073-7.484 0.242-0.048 0.776-0.289 1.599-0.727 0.727-0.289 1.114-0.241 1.163 0.146-0.437 0.096-0.631 0.291-0.582 0.58 0.339 0.05 0.533 0.315 0.582 0.801v1.381z" fill="#E76D73"/>
	<path d="m18.943 16.478c0.387 0.243 0.75 0.775 1.09 1.598 0.436-0.048 0.774-0.339 1.017-0.871 0.241-0.63 0.437-1.066 0.581-1.309h0.582v19.109c-0.484-0.048-0.703 0.315-0.654 1.09 0.096 1.018 0.122 1.574 0.072 1.672-0.29-0.05-0.436-0.243-0.436-0.582 0-0.484-0.024-0.848-0.072-1.09-0.291 0.048-0.46 0.267-0.509 0.654-0.05 0.193-0.073 0.532-0.073 1.018-0.484 0-0.653-0.63-0.508-1.891 0.145-1.259-0.049-1.913-0.582-1.961v-1.09c0-5.57-0.363-10.292-1.09-14.168 0.05-0.291-0.145-0.484-0.58-0.582-0.048-0.436 0.072-0.774 0.363-1.016 0.436-0.194 0.702-0.387 0.799-0.581z" fill="#F2F3F1"/>
	<path d="m21.268 13.862c0.146 0.241 0.461 0.556 0.945 0.943-0.437 0.146-0.631 0.51-0.582 1.09-0.145 0.243-0.34 0.679-0.581 1.309-0.242 0.532-0.581 0.823-1.017 0.871-0.34-0.823-0.703-1.355-1.09-1.598-1.114-0.339-1.381-1.042-0.799-2.107 0.357-0.683 0.83-1.094 1.417-1.234-0.111-0.087-0.075-0.255 0.109-0.51 0.339-0.58 0.822-0.774 1.453-0.58-0.195 0.726-0.145 1.331 0.145 1.816z" fill="#DCBA5D"/>
	<path d="m16.181 19.165c0.291-0.048 0.582-0.217 0.873-0.508 0.291-0.339 0.532-0.532 0.727-0.582 0.436 0.098 0.63 0.291 0.58 0.582-1.501 0.921-2.105 3.633-1.816 8.137 0.291 4.506 1.26 6.516 2.907 6.031v1.09c-0.097 2.906 0.098 4.917 0.582 6.031v2.76c-1.163 0.097-1.914 0.46-2.252 1.09-1.018-7.798-1.55-15.646-1.6-23.541v-1.09z" fill="#D52D37"/>
	<path d="m13.421 16.985c0.387 0 0.75-0.168 1.09-0.508-0.048 0.63 0.121 1.162 0.508 1.598 0.243 0.243 0.63 0.606 1.162 1.09v1.09c-0.532 0.388-0.847 1.357-0.943 2.906-0.097 1.647-0.339 2.689-0.727 3.125-0.436-0.679-0.606-2.228-0.51-4.65 0.099-2.373-0.096-3.924-0.58-4.651z" fill="#9C9797"/>
	<path d="m13.275 37.04c-0.289-0.679-0.241-0.993 0.146-0.945 0.775 2.471 1.138 5.038 1.09 7.701-0.436 0.049-0.775-0.072-1.018-0.363-0.194-0.339-0.387-0.58-0.582-0.727 0-0.388-0.145-1.162-0.436-2.324-0.241-0.921-0.291-1.792-0.145-2.615 0.921 0.192 1.236-0.05 0.945-0.727z" fill="#7F7576"/>
	<path d="m30.932 30.138c0.048 0.289 0.048 0.75 0 1.379 0.048 0.485 0.242 0.751 0.581 0.801 0-0.243 0.121-0.388 0.363-0.438 0.146-0.048 0.388-0.097 0.727-0.145 0.146 0.679 0.072 1.332-0.218 1.961-0.34 0.727-0.46 1.356-0.363 1.891-0.049 0.339-0.243 1.113-0.582 2.324-0.193 1.065 0 1.744 0.582 2.035-0.097 0.532-0.532 0.919-1.309 1.162-0.871 0.193-1.525 0.363-1.961 0.508 0.63-1.018 1.041-2.882 1.234-5.594 0.243-2.955 0.558-4.917 0.946-5.884z" fill="#DCD5D2"/>
	<path d="m30.932 30.138c-0.388 0.968-0.703 2.93-0.945 5.885-0.193 2.712-0.604 4.576-1.234 5.594-0.388 0.339-0.751 0.51-1.09 0.51-0.34-0.05-0.532-0.315-0.582-0.801 0.05-0.629 0.05-1.09 0-1.379v-1.6c0.387-0.63 0.63-1.67 0.727-3.123 0.194-1.987 0.314-3.149 0.363-3.488 0.63-0.048 0.993-0.339 1.09-0.871 0.05-0.485-0.121-0.921-0.508-1.309 0.678 0.194 1.138 0.024 1.38-0.508 0.291-0.679 0.557-1.042 0.8-1.09v2.18z" fill="#A90D14"/>
	<path d="m32.021 39.946c-0.582-0.291-0.775-0.97-0.582-2.035 0.339-1.211 0.533-1.985 0.582-2.324 0.387 0.048 0.605 0.483 0.653 1.307 0 0.873 0.146 1.356 0.437 1.453 0.243 1.114-0.121 1.647-1.09 1.599z" fill="#A90D14"/>
	<path d="m24.828 40.599c-0.049 0.727 0.17 1.066 0.654 1.018l1.598-1.67c0.05 0.289 0.05 0.75 0 1.379 0.05 0.485 0.242 0.751 0.582 0.801 0.048 0.289-0.146 0.483-0.582 0.58-0.581-0.048-0.944 0.122-1.09 0.51-0.34-0.05-0.629 0.023-0.871 0.217-0.34 0.243-0.582 0.363-0.727 0.363v-4.939h0.508c0.05 0.095 0.024 0.675-0.072 1.741z" fill="#9C9797"/>
	<path d="m6.882 37.257l1.162 1.6h-0.072c-0.097 0.677-0.363 0.727-0.799 0.145-0.437-0.631-0.533-1.212-0.291-1.745z" fill="#7F7576"/>
	<path d="m16.181 5.507c0.146 0.532-0.241 0.919-1.162 1.162-0.968 0.194-1.501-0.024-1.598-0.654 0.193-0.096 0.75-0.241 1.67-0.436 0.582-0.145 0.388-0.363-0.58-0.654 0.096-0.436 0.654-0.604 1.67-0.508v1.09z" fill="#FEFFFD"/>
	<path d="m11.242 31.228c0.339 3.003 0.702 5.183 1.09 6.539-0.146 0.823-0.097 1.694 0.145 2.615 0.291 1.162 0.436 1.937 0.436 2.324-0.436 0.049-0.774-0.072-1.016-0.363-0.388-0.483-0.606-0.727-0.654-0.727-0.485-3.826-1.018-6.393-1.6-7.701 0-1.309-0.774-5.353-2.324-12.133-1.21-5.184-1.187-8.235 0.072-9.156 0.097 0.195 0.412 0.63 0.945 1.309 0.387 0.484 0.63 0.945 0.727 1.381 0.727 5.038 1.09 8.137 1.09 9.299 0.338 1.308 0.701 3.512 1.089 6.613z" fill="#A90D14"/>
	<path d="m15.091 12.626c0.146 0.05 0.388 0.074 0.727 0.074 0.243 0.096 0.363 0.241 0.363 0.436-0.048 0.484 0.05 0.775 0.291 0.871 0.194 0.097 0.46 0 0.799-0.291 0 0.582 0.098 1.309 0.291 2.18 0 0.582-0.459 0.945-1.381 1.09-0.145-0.289 0-0.727 0.438-1.307 0.289-0.436 0.145-0.727-0.438-0.873-0.145 0.679-0.628 0.969-1.453 0.873-1.016-0.097-1.816 0.169-2.396 0.799-0.048-0.775-0.097-1.187-0.146-1.234-0.145-0.438-0.459-0.582-0.943-0.438-0.048-0.289-0.558-0.508-1.525-0.652-0.825-0.098-1.042-0.606-0.654-1.527 0.532-0.048 1.09 0.122 1.67 0.51 0.388-0.63 1.114-1.525 2.18-2.689-0.339 1.309-0.193 2.471 0.438 3.488 0.677 1.018 1.429 1.114 2.252 0.291-0.873-0.146-1.333-0.654-1.381-1.525 0-0.776 0.291-1.527 0.871-2.254v2.178z" fill="#DCBA5D"/>
	<path d="m13.421 16.985c0.484 0.727 0.678 2.278 0.58 4.65-0.096 2.423 0.074 3.972 0.51 4.65-0.048 2.228 0.145 5.401 0.58 9.518 0.438 4.021 0.606 7.218 0.51 9.592h-0.51c0-0.438-0.024-0.776-0.072-1.018-0.048-0.339-0.217-0.533-0.508-0.582 0.048-2.663-0.315-5.23-1.09-7.701 0.193-1.453 0.072-3.705-0.363-6.758-0.582-3.486-0.994-5.957-1.236-7.41 0.243-0.727 0.17-1.792-0.217-3.197-0.339-1.162-0.267-1.913 0.217-2.252-0.048 0.823 0.315 1.356 1.09 1.598-0.145-0.58 0.024-0.943 0.509-1.09z" fill="#A90D14"/>
	<path d="m18.361 18.657c0.727 3.875 1.09 8.598 1.09 14.168-1.646 0.484-2.616-1.525-2.907-6.031-0.289-4.504 0.316-7.216 1.817-8.137z" fill="#E76D73"/>
	<path d="m10.152 24.614c0.678 0.05 1.138-0.217 1.381-0.799 0.145-0.339 0.241-0.968 0.289-1.889 0.243 1.453 0.654 3.924 1.236 7.41 0.436 3.053 0.556 5.305 0.363 6.758-0.388-0.048-0.436 0.267-0.146 0.945 0.291 0.677-0.024 0.919-0.943 0.727-0.388-1.356-0.751-3.536-1.09-6.539-0.388-3.1-0.751-5.304-1.09-6.613z" fill="#9C9797"/>
	<path d="m16.181 20.255c0.05 7.896 0.582 15.743 1.6 23.541v2.18h1.162v0.51c-0.63 0.145-1.234 0.12-1.816-0.074-0.727-0.289-1.234-0.436-1.525-0.436v-0.58c0.096-2.374-0.072-5.571-0.51-9.592-0.436-4.116-0.628-7.29-0.58-9.518 0.387-0.436 0.63-1.478 0.727-3.125 0.095-1.549 0.41-2.518 0.942-2.906z" fill="#7F7576"/>
	<path d="m22.213 35.005v3.852c-0.146 0.048-0.412 0.339-0.8 0.871-0.29 0.388-0.75 0.46-1.38 0.219-0.484-1.114-0.679-3.125-0.582-6.031 0.533 0.048 0.727 0.702 0.582 1.961-0.146 1.261 0.023 1.891 0.508 1.891 0-0.485 0.023-0.824 0.073-1.018 0.049-0.388 0.218-0.606 0.509-0.654 0.048 0.242 0.072 0.605 0.072 1.09 0 0.339 0.146 0.532 0.436 0.582 0.05-0.098 0.023-0.654-0.072-1.672-0.049-0.776 0.17-1.139 0.654-1.091z" fill="#DCD5D2"/>
	<path d="m24.393 38.856v4.939c-0.291-0.048-0.582 0.024-0.872 0.219-0.339 0.193-0.605 0.291-0.8 0.291-0.484-0.146-0.677-0.751-0.581-1.816 0.097-1.503 0.121-2.351 0.073-2.543 0.581 0.629 1.017 0.727 1.308 0.289 0.339-0.676 0.628-1.137 0.872-1.379z" fill="#A90D14"/>
	<path d="m22.213 39.946c0.048 0.192 0.023 1.04-0.073 2.543-0.096 1.065 0.097 1.67 0.581 1.816-0.193 0.339-0.581 0.604-1.162 0.799-0.679 0.097-1.187 0.193-1.525 0.291v-5.449c0.63 0.241 1.09 0.169 1.38-0.219 0.388-0.532 0.654-0.823 0.8-0.871v1.09z" fill="#B5B7B5"/>
	<path d="m8.916 39.655c0.098-0.194 0.146-0.46 0.146-0.799 0.291 0.097 0.532 0.702 0.727 1.816 0.145 0.871 0.63 1.187 1.453 0.943 0.048 0 0.267 0.243 0.654 0.727 0.241 0.291 0.58 0.412 1.016 0.363 0.195 0.146 0.388 0.388 0.582 0.727 0.243 0.291 0.582 0.412 1.018 0.363 0.291 0.049 0.459 0.243 0.508 0.582 0.048 0.241 0.072 0.58 0.072 1.018-0.727 0.192-1.307 0.048-1.742-0.438-0.534-0.483-1.042-0.702-1.527-0.652l-3.089-4.505c0.058 0.01 0.118-0.038 0.182-0.145z" fill="#6E4242"/>
	<path d="m3.613 20.255c0.291-0.484-0.024-2.105-0.945-4.867-0.871-2.567-0.75-4.215 0.363-4.941 0.969 3.343 1.963 7.653 2.978 12.933 0.582 2.954 1.405 7.387 2.471 13.297 0 0.339 0.097 0.702 0.291 1.09 0.243 0.436 0.339 0.799 0.291 1.09 0 0.339-0.048 0.604-0.146 0.799-0.145 0.241-0.289 0.169-0.436-0.219 0-0.436-0.169-0.63-0.508-0.58-1.987-9.059-3.27-14.702-3.852-16.93v-1.018c-0.048-0.387-0.216-0.604-0.507-0.654z" fill="#A90D14"/>
	<path d="m8.408 37.911c0 0.727 0.412 1.09 1.234 1.09 0.291 0 0.703 0.436 1.236 1.309 0.727 1.162 1.356 2.009 1.889 2.543 0.63 0.629 1.234 0.896 1.816 0.799 0.339-0.097 0.969-0.243 1.889-0.436 1.066 0 1.696-0.363 1.889-1.09l4.215 1.09h3.996l-8.356 3.27c-2.471-0.63-4.117-1.212-4.941-1.744l-6.539-4.215-0.508-4.65 1.09 0.727c0.726 0.533 1.09 0.968 1.09 1.307z" fill="#A90D14"/>
	<path d="m20.396 6.087l0.508 0.582c-0.34 1.259-0.92 1.792-1.743 1.598-0.29-1.501 0.121-2.228 1.235-2.18z" fill="#FEFFFD"/>
	<path d="m21.85 2.673l0.363 0.145c-0.146 0.776-0.582 1.066-1.309 0.873-0.097-0.388-0.097-0.799 0-1.236 0.195-0.049 0.509 0.024 0.946 0.218z" fill="#FEFFFD"/>
	<path d="m25.99 6.087l0.582 0.363c0.436 0.63 0.411 1.114-0.073 1.453-0.485 0.388-1.017 0.267-1.599-0.363-0.532-0.628-0.653-1.065-0.363-1.307 0.242-0.242 0.727-0.291 1.453-0.146z" fill="#FEFFFD"/>
	<path d="m29.26 8.267l0.219-0.145c0.387 0.243 0.483 0.823 0.29 1.744-0.581 0.145-0.944-0.024-1.09-0.51-0.096-0.483 0.096-0.847 0.581-1.089z" fill="#DCBA5D"/>
	<path d="m25.264 11.755h0.219c0.483 0.194 0.727 0.558 0.727 1.09 0 0.484-0.146 0.945-0.437 1.381-1.356 0.193-2.011-0.194-1.962-1.162 0-0.97 0.485-1.406 1.453-1.309z" fill="#DCBA5D"/>
	<path d="m21.486 7.759v0.363c0 0.582-0.073 1.477-0.219 2.688-0.484 0.098-0.92 0.074-1.308-0.072-0.29-0.58-0.267-1.234 0.073-1.961s0.823-1.067 1.454-1.018z" fill="#DCBA5D"/>
	<path d="m12.185 7.54l0.582 0.363c0.097-0.193 0.194-0.313 0.291-0.363 0.096-0.096 0.291-0.096 0.58 0 0.098 0.485 0.098 0.969 0 1.453-0.532 0.098-1.065 0.098-1.598 0-0.096-0.58-0.048-1.065 0.145-1.453z" fill="#DCBA5D"/>
	<path d="m20.76 1.364v-0.508c0.339-0.048 0.581 0.072 0.727 0.363 0.096 0.291 0.096 0.606 0 0.945-0.195 0.532-0.751 0.847-1.672 0.943-1.211 0.048-1.622-0.363-1.235-1.234 0.436-0.822 1.162-0.993 2.18-0.509z" fill="#FEFFFD"/>
	<path d="m11.458 5.071h0.074c0.484 0.241 0.677 0.677 0.58 1.307-0.145 0.63-0.484 0.969-1.018 1.018-1.114 0.048-1.477-0.484-1.09-1.598 0.389-1.164 0.874-1.405 1.454-0.727z" fill="#FEFFFD"/>
	<path d="m29.188 4.634l0.363-0.289c0.485-0.05 0.678 0.193 0.581 0.727-0.096 0.484-0.363 0.774-0.799 0.871-0.533 0.048-0.849-0.194-0.944-0.727-0.049-0.532 0.217-0.727 0.799-0.582z" fill="#FEFFFD"/>
	<path d="m22.794 10.884h-0.509c0.387 0.339 0.459 0.871 0.218 1.598-0.29 0.775-0.702 0.945-1.235 0.508-0.241-0.193-0.388-0.604-0.436-1.234-0.049-0.63 0.048-1.066 0.291-1.309 0.29-0.289 0.653-0.387 1.09-0.289 0.435 0.047 0.63 0.288 0.581 0.726z" fill="#FEFFFD"/>
</g>
</svg>